emandoz presents:

Apocalypse Now Redux [Eng,Ger] [emandoz 1-gig rip]



Apocalypse Now Redux
Audio: English, German
Subs included
Source: PAL DVD

--------------------------------------------------------------------
Apocalypse Now Redux (1979)

Video
ID                               : 1
Format                           : AVC
Format/Info                      : Advanced Video Codec
Format profile                   : High@L3.0
Format settings, CABAC           : Yes
Format settings, ReFrames        : 6 frames
Muxing mode                      : Container profile=Unknown@3.0
Codec ID                         : V_MPEG4/ISO/AVC
Duration                         : 3h 13mn
Bit rate                         : 513 Kbps
Nominal bit rate                 : 516 Kbps
Width                            : 576 pixels
Height                           : 416 pixels
Display aspect ratio             : 1.988
Frame rate                       : 25.000 fps
Resolution                       : 24 bits
Colorimetry                      : 4:2:0
Scan type                        : Progressive
Bits/(Pixel*Frame)               : 0.086
Stream size                      : 712 MiB (71%)
Writing library                  : x264 core 65
Encoding settings                : cabac=1 / ref=6 / deblock=1:0:0 / analyse=0x3:0x133 / me=umh / subme=9 / psy_rd=1.0:1.0 / mixed_ref=1 / me_range=32 / chroma_me=1 / trellis=2 / 8x8dct=1 / cqm=0 / deadzone=21,11 / chroma_qp_offset=-4 / threads=1 / nr=0 / decimate=1 / mbaff=0 / bframes=7 / b_pyramid=1 / b_adapt=1 / b_bias=0 / direct=3 / wpredb=1 / keyint=250 / keyint_min=25 / scenecut=40 / rc=2pass / bitrate=516 / ratetol=1.0 / qcomp=0.60 / qpmin=10 / qpmax=51 / qpstep=4 / cplxblur=20.0 / qblur=0.5 / ip_ratio=1.40 / pb_ratio=1.30 / aq=1:1.00

Audio #1
ID                               : 2
Format                           : Vorbis
Format settings, Floor           : 1
Codec ID                         : A_VORBIS
Duration                         : 3h 13mn
Bit rate mode                    : Constant
Bit rate                         : 112 Kbps
Channel(s)                       : 2 channels, Dolby Surround ProLogic II
Sampling rate                    : 48.0 KHz
Stream size                      : 155 MiB (15%)
Writing library                  : aoTuV Beta 5 (UTC 2006-10-24)
Language                         : English

Audio #2
ID                               : 3
Format                           : Vorbis
Format settings, Floor           : 1
Codec ID                         : A_VORBIS
Duration                         : 3h 13mn
Bit rate mode                    : Constant
Bit rate                         : 86.0 Kbps
Channel(s)                       : 2 channels, Dolby Surround ProLogic II
Sampling rate                    : 48.0 KHz
Stream size                      : 119 MiB (12%)
Writing library                  : aoTuV Beta 5 (UTC 2006-10-24)
Language                         : Deutsch


Subs
English, German for the hearing impaired
--------------------------------------------------------------------



Screenshots:
http://a.imagehost.org/0462/image001.jpg
http://a.imagehost.org/0483/image002.jpg
http://a.imagehost.org/0283/image003.jpg
http://a.imagehost.org/0675/image004.jpg
http://a.imagehost.org/0579/image005.jpg